HIERARCHY
ROOT Hips
{
	OFFSET 0.00000 0.00000 0.00000
	CHANNELS 6 Xposition Yposition Zposition Zrotation Yrotation Xrotation 
	JOINT LHipJoint
	{
		OFFSET 0 0 0
		CHANNELS 3 Zrotation Yrotation Xrotation
		JOINT LeftUpLeg
		{
			OFFSET 1.44361 -1.63093 0.70831
			CHANNELS 3 Zrotation Yrotation Xrotation
			JOINT LeftLeg
			{
				OFFSET 2.20103 -6.04728 0.00000
				CHANNELS 3 Zrotation Yrotation Xrotation
				JOINT LeftFoot
				{
					OFFSET 2.54154 -6.98283 0.00000
					CHANNELS 3 Zrotation Yrotation Xrotation
					JOINT LeftToeBase
					{
						OFFSET 0.05971 -0.16406 1.77582
						CHANNELS 3 Zrotation Yrotation Xrotation
						End Site
						{
							OFFSET 0.00000 -0.00000 0.90832
						}
					}
				}
			}
		}
	}
	JOINT RHipJoint
	{
		OFFSET 0 0 0
		CHANNELS 3 Zrotation Yrotation Xrotation
		JOINT RightUpLeg
		{
			OFFSET -1.65838 -1.63093 0.70830
			CHANNELS 3 Zrotation Yrotation Xrotation
			JOINT RightLeg
			{
				OFFSET -2.26926 -6.23475 0.00000
				CHANNELS 3 Zrotation Yrotation Xrotation
				JOINT RightFoot
				{
					OFFSET -2.34808 -6.45129 0.00000
					CHANNELS 3 Zrotation Yrotation Xrotation
					JOINT RightToeBase
					{
						OFFSET -0.18633 -0.51195 1.68539
						CHANNELS 3 Zrotation Yrotation Xrotation
						End Site
						{
							OFFSET -0.00000 -0.00000 0.88927
						}
					}
				}
			}
		}
	}
	JOINT LowerBack
	{
		OFFSET 0 0 0
		CHANNELS 3 Zrotation Yrotation Xrotation
		JOINT Spine
		{
			OFFSET -0.10393 2.01691 0.06920
			CHANNELS 3 Zrotation Yrotation Xrotation
			JOINT Spine1
			{
				OFFSET 0.04092 2.01302 -0.05283
				CHANNELS 3 Zrotation Yrotation Xrotation
				JOINT Neck
				{
					OFFSET 0 0 0
					CHANNELS 3 Zrotation Yrotation Xrotation
					JOINT Neck1
					{
						OFFSET -0.02870 1.58978 -0.03113
						CHANNELS 3 Zrotation Yrotation Xrotation
						JOINT Head
						{
							OFFSET 0.11532 1.54326 -0.29195
							CHANNELS 3 Zrotation Yrotation Xrotation
							End Site
							{
								OFFSET 0.04056 1.59999 -0.09535
							}
						}
					}
				}
				JOINT LeftShoulder
				{
					OFFSET 0 0 0
					CHANNELS 3 Zrotation Yrotation Xrotation
					JOINT LeftArm
					{
						OFFSET 3.30641 1.15764 0.01104
						CHANNELS 3 Zrotation Yrotation Xrotation
						JOINT LeftForeArm
						{
							OFFSET 4.63208 -0.00000 0.00000
							CHANNELS 3 Zrotation Yrotation Xrotation
							JOINT LeftHand
							{
								OFFSET 3.41924 -0.00000 -0.00000
								CHANNELS 3 Zrotation Yrotation Xrotation
								JOINT LeftFingerBase
								{
									OFFSET 0 0 0
									CHANNELS 3 Zrotation Yrotation Xrotation
									JOINT LeftHandIndex1
									{
										OFFSET 0.62537 -0.00000 -0.00000
										CHANNELS 3 Zrotation Yrotation Xrotation
										End Site
										{
											OFFSET 0.50419 -0.00000 -0.00000
										}
									}
								}
								JOINT LThumb
								{
									OFFSET 0 0 0
									CHANNELS 3 Zrotation Yrotation Xrotation
									End Site
									{
										OFFSET 0.51189 -0.00000 0.51189
									}
								}
							}
						}
					}
				}
				JOINT RightShoulder
				{
					OFFSET 0 0 0
					CHANNELS 3 Zrotation Yrotation Xrotation
					JOINT RightArm
					{
						OFFSET -3.78081 1.02180 -0.16609
						CHANNELS 3 Zrotation Yrotation Xrotation
						JOINT RightForeArm
						{
							OFFSET -4.40640 -0.00000 -0.00000
							CHANNELS 3 Zrotation Yrotation Xrotation
							JOINT RightHand
							{
								OFFSET -3.44675 -0.00000 0.00000
								CHANNELS 3 Zrotation Yrotation Xrotation
								JOINT RightFingerBase
								{
									OFFSET 0 0 0
									CHANNELS 3 Zrotation Yrotation Xrotation
									JOINT RightHandIndex1
									{
										OFFSET -0.51367 -0.00000 -0.00000
										CHANNELS 3 Zrotation Yrotation Xrotation
										End Site
										{
											OFFSET -0.41414 -0.00000 -0.00000
										}
									}
								}
								JOINT RThumb
								{
									OFFSET 0 0 0
									CHANNELS 3 Zrotation Yrotation Xrotation
									End Site
									{
										OFFSET -0.42046 -0.00000 0.42046
									}
								}
							}
						}
					}
				}
			}
		}
	}
}
MOTION
Frames: 17
Frame Time: .0083333
10.0685 12.6642 -8.3506 0 0 0 0 0 0 -21 0 0 0 0 0 0 0 0 0 0 0 0 0 0 21 0 0 0 0 0 0 0 0 0 0 0 0 0 0 0 0 0 0 0 0 0 0 -16 0 0 21 0 0 11 0 0 0 -8 0 0 0 0 0 0 0 0 0 0 0 0 0 0 0 0 0 0 0 0 8 0 0 0 0 0 0 0 0 0 0 0 0 0 0 0 0 0
10.0685 12.6642 -8.3506 0.8881 2.2073 1.0028 0.0000 0.0000 0.0000 -9.8352 -16.8421 -42.1031 0.0000 0.0000 0.0000 0.0000 0.0000 0.0000 0.0000 0.0000 0.0000 0.0000 0.0000 0.0000 10.1496 9.1703 -40.2036 0.0000 0.0000 0.0000 -0.0000 -0.0000 0.0000 -0.0000 -0.0000 0.0000 -5.3300 0.2436 11.6261 1.0953 -0.1481 7.8385 4.1571 -0.2992 1.7339 -6.1086 -7.9604 -7.2698 5.5313 -10.2937 1.2960 2.3655 -5.0467 2.3498 -0.0000 0.0000 0.0000 -0.9514 -62.8671 11.6545 31.3192 -41.9977 -12.2829 -0.0000 -0.0000 18.5653 43.4242 -19.7555 -17.7399 -7.1250 0.0000 -0.0000 9.3620 3.9671 -8.8125 -0.0000 0.0000 0.0000 8.5845 62.2303 17.1640 -37.0535 46.2240 -16.2787 0.0000 0.0000 5.9078 -26.2019 -28.6549 13.2777 7.1250 -0.0000 -0.0000 5.3539 -61.2442 -2.1215
10.0687 12.6614 -8.3434 1.1616 2.2798 0.9898 0.0000 0.0000 0.0000 -10.1904 -16.8582 -41.9951 0.0000 0.0000 0.0000 0.0000 0.0000 0.0000 0.0000 0.0000 0.0000 0.0000 0.0000 0.0000 9.8154 8.9367 -40.1957 0.0000 0.0000 0.0000 -0.0000 -0.0000 0.0000 -0.0000 -0.0000 0.0000 -5.5651 0.2350 11.5179 1.0336 -0.1716 7.9242 4.2267 -0.3248 1.8901 -6.2414 -7.9354 -7.2611 5.6172 -10.2575 1.4441 2.4177 -5.0272 2.4107 0.0000 0.0000 0.0000 -0.9460 -62.8054 11.5078 31.2459 -41.9376 -12.2338 -0.0000 -0.0000 18.8397 43.4213 -19.8428 -17.8087 -7.1250 0.0000 -0.0000 9.3410 3.8592 -8.8111 0.0000 0.0000 0.0000 8.3309 62.0890 16.8638 -36.9990 46.1879 -16.2393 0.0000 0.0000 5.8148 -26.0694 -28.4658 13.1260 7.1250 -0.0000 -0.0000 5.4140 -61.0139 -2.1158
10.0653 12.6587 -8.3422 1.1959 2.3003 1.0070 0.0000 0.0000 0.0000 -10.1935 -16.7972 -42.0738 0.0000 0.0000 0.0000 0.0000 0.0000 0.0000 0.0000 0.0000 0.0000 0.0000 0.0000 0.0000 9.7884 8.8498 -40.2646 0.0000 0.0000 0.0000 -0.0000 -0.0000 0.0000 -0.0000 -0.0000 0.0000 -5.5513 0.2431 11.4273 1.0055 -0.1528 7.9849 4.1868 -0.3187 2.0009 -6.2224 -7.9264 -7.3744 5.5515 -10.2486 1.7812 2.3842 -5.0215 2.5388 0.0000 -0.0000 0.0000 -0.8587 -62.7743 11.3511 31.1412 -41.8517 -12.1640 -0.0000 -0.0000 19.0952 43.8378 -20.2936 -18.4198 -7.1250 0.0000 -0.0000 9.4899 3.1568 -9.0802 0.0000 -0.0000 0.0000 8.1245 61.9998 16.5557 -36.8173 46.0670 -16.1083 0.0000 0.0000 5.8941 -25.9475 -28.4078 13.0342 7.1250 -0.0000 -0.0000 5.5270 -60.9229 -2.1481
10.0603 12.6566 -8.3429 1.2845 2.3230 0.9946 0.0000 0.0000 0.0000 -10.2503 -16.7685 -42.1145 0.0000 0.0000 0.0000 0.0000 0.0000 0.0000 0.0000 0.0000 0.0000 0.0000 0.0000 0.0000 9.7255 8.7633 -40.3261 0.0000 0.0000 0.0000 -0.0000 -0.0000 0.0000 -0.0000 -0.0000 0.0000 -5.5937 0.2627 11.3787 0.9538 -0.1248 8.0855 4.1532 -0.3111 2.1314 -6.1595 -7.9090 -7.5531 5.5481 -10.2299 2.0432 2.3630 -5.0081 2.6549 0.0000 0.0000 0.0000 -0.5850 -62.7390 11.0856 31.0704 -41.7934 -12.1167 -0.0000 -0.0000 19.1778 44.1317 -20.5437 -18.8008 -7.1250 0.0000 -0.0000 9.6082 2.7431 -9.2705 0.0000 0.0000 0.0000 7.6993 61.9047 16.1098 -36.6710 45.9691 -16.0030 0.0000 0.0000 5.8691 -25.9117 -28.4498 13.0312 7.1250 -0.0000 -0.0000 5.5896 -60.9575 -2.1772
10.0571 12.6556 -8.3372 1.2155 2.3554 0.9632 0.0000 0.0000 0.0000 -10.1606 -16.6960 -42.0579 0.0000 0.0000 0.0000 0.0000 0.0000 0.0000 0.0000 0.0000 0.0000 0.0000 0.0000 0.0000 9.8499 8.6585 -40.2824 0.0000 0.0000 0.0000 -0.0000 -0.0000 0.0000 -0.0000 -0.0000 0.0000 -5.4653 0.2624 11.2999 0.9453 -0.1069 8.1954 4.0695 -0.3035 2.2866 -6.1320 -7.9046 -7.7955 5.5666 -10.2240 2.3242 2.3521 -4.9996 2.7947 0.0000 0.0000 0.0000 -0.2428 -62.7134 10.8420 31.0395 -41.7679 -12.0962 -0.0000 -0.0000 19.0423 43.8824 -20.3754 -18.5128 -7.1250 0.0000 -0.0000 9.4980 3.0396 -9.1089 0.0000 0.0000 0.0000 7.3856 61.7568 15.7440 -36.5878 45.9132 -15.9433 0.0000 0.0000 5.8827 -26.0366 -28.4900 13.1175 7.1250 -0.0000 -0.0000 5.4644 -61.0309 -2.1377
10.0472 12.6546 -8.3459 1.1260 2.3328 0.9500 0.0000 0.0000 0.0000 -9.9711 -16.5115 -42.1885 0.0000 0.0000 0.0000 0.0000 0.0000 0.0000 0.0000 0.0000 0.0000 0.0000 0.0000 0.0000 10.0186 8.7270 -40.3830 0.0000 0.0000 0.0000 -0.0000 -0.0000 0.0000 -0.0000 -0.0000 0.0000 -5.4510 0.2875 11.5158 0.9836 -0.0871 8.1154 4.1011 -0.2864 2.0824 -6.0213 -7.8788 -7.8811 5.3420 -10.1965 2.7326 2.2512 -4.9883 2.9250 -0.0000 0.0000 0.0000 -0.4081 -62.6238 11.0641 31.0045 -41.7390 -12.0728 -0.0000 -0.0000 18.8488 43.6858 -20.4828 -18.4812 -7.1250 0.0000 -0.0000 9.3570 2.9741 -8.9812 -0.0000 0.0000 0.0000 7.6098 61.5585 15.9331 -36.5478 45.8862 -15.9145 0.0000 0.0000 5.9355 -26.4326 -28.4037 13.3042 7.1250 -0.0000 -0.0000 4.9591 -61.0404 -1.9406
10.0409 12.6541 -8.3490 1.1183 2.3359 0.9740 0.0000 0.0000 0.0000 -9.9177 -16.3983 -42.2836 0.0000 0.0000 0.0000 0.0000 0.0000 0.0000 0.0000 0.0000 0.0000 0.0000 0.0000 0.0000 10.0673 8.7020 -40.4678 0.0000 0.0000 0.0000 -0.0000 -0.0000 0.0000 -0.0000 -0.0000 0.0000 -5.5318 0.2738 11.6320 1.0370 -0.1222 7.9905 4.2072 -0.3003 1.8927 -6.1131 -7.7106 -7.2428 5.2692 -9.9919 2.7144 2.2801 -4.8992 2.7883 0.0000 -0.0000 0.0000 -1.0300 -62.4803 11.5619 30.9032 -41.6551 -12.0055 -0.0000 -0.0000 18.7835 43.8380 -20.7026 -18.7503 -7.1250 0.0000 -0.0000 9.3980 2.6485 -9.0783 0.0000 -0.0000 0.0000 7.9101 61.3873 16.3247 -36.5214 45.8684 -15.8956 0.0000 0.0000 5.9692 -26.5444 -28.1315 13.2536 7.1250 -0.0000 -0.0000 4.6972 -60.7838 -1.8092
10.0406 12.6526 -8.3396 1.0972 2.3801 0.9668 0.0000 0.0000 0.0000 -9.9249 -16.3410 -42.2281 0.0000 0.0000 0.0000 0.0000 0.0000 0.0000 0.0000 0.0000 0.0000 0.0000 0.0000 0.0000 10.1002 8.5416 -40.4187 0.0000 0.0000 0.0000 -0.0000 -0.0000 0.0000 -0.0000 -0.0000 0.0000 -5.4933 0.2389 11.4914 1.0765 -0.1560 8.0285 4.2292 -0.3211 2.0126 -6.0491 -7.6183 -7.3662 5.0145 -9.8681 3.2201 2.1814 -4.8412 2.9547 -0.0000 -0.0000 0.0000 -1.3556 -62.4289 11.7124 30.7770 -41.5501 -11.9216 -0.0000 -0.0000 18.9257 43.9257 -20.5269 -18.6618 -7.1250 0.0000 -0.0000 9.4897 2.8361 -9.1365 -0.0000 -0.0000 0.0000 7.8003 61.2604 16.2888 -36.4644 45.8299 -15.8547 0.0000 0.0000 5.9221 -26.2059 -28.1252 13.0625 7.1250 -0.0000 -0.0000 5.0882 -60.6926 -1.9492
10.0318 12.6513 -8.3534 0.9448 2.3648 1.0652 0.0000 0.0000 0.0000 -9.6042 -16.1791 -42.6000 0.0000 0.0000 0.0000 0.0000 0.0000 0.0000 0.0000 0.0000 0.0000 0.0000 0.0000 0.0000 10.3006 8.6500 -40.6901 0.0000 0.0000 0.0000 -0.0000 -0.0000 0.0000 -0.0000 -0.0000 0.0000 -5.1246 0.1510 12.6510 0.9026 -0.3187 7.2819 3.8669 -0.3292 0.6049 -5.8055 -7.4383 -7.6441 4.8294 -9.6623 4.4520 2.0661 -4.7335 3.3922 0.0000 0.0000 0.0000 -2.8525 -61.8960 13.7721 30.8034 -41.5721 -11.9392 -0.0000 -0.0000 19.0771 44.0113 -20.4523 -18.6532 -7.1250 0.0000 -0.0000 9.5574 2.8991 -9.1924 0.0000 0.0000 0.0000 9.8319 61.3055 18.2832 -36.3585 45.7581 -15.7787 0.0000 0.0000 5.9082 -25.8902 -28.3296 12.9705 7.1250 -0.0000 -0.0000 5.5547 -60.8271 -2.1463
10.0217 12.6528 -8.3703 0.6388 2.3693 1.2168 0.0000 0.0000 0.0000 -9.0674 -16.0308 -43.0855 0.0000 0.0000 0.0000 0.0000 0.0000 0.0000 0.0000 0.0000 0.0000 0.0000 0.0000 0.0000 10.6869 8.7928 -40.9924 0.0000 0.0000 0.0000 -0.0000 -0.0000 0.0000 -0.0000 -0.0000 0.0000 -4.9519 0.1424 12.7950 1.0688 -0.3203 7.1662 3.9458 -0.3205 0.4042 -5.8915 -7.2722 -7.7058 4.7425 -9.4349 4.9027 2.0609 -4.6234 3.5480 -0.0000 -0.0000 0.0000 -3.1408 -61.7921 13.8974 30.6775 -41.4670 -11.8557 -0.0000 -0.0000 19.3853 44.2625 -20.6195 -18.9426 -7.1250 0.0000 -0.0000 9.6684 2.6024 -9.3554 -0.0000 -0.0000 0.0000 9.6366 61.2462 18.3220 -36.2761 45.7021 -15.7197 0.0000 0.0000 5.7588 -25.7340 -28.5249 12.9622 7.1250 -0.0000 -0.0000 5.8343 -60.9911 -2.2775
10.0258 12.6475 -8.3528 1.1748 2.4714 1.0785 0.0000 0.0000 0.0000 -9.8426 -16.0962 -42.6775 0.0000 0.0000 0.0000 0.0000 0.0000 0.0000 0.0000 0.0000 0.0000 0.0000 0.0000 0.0000 10.0485 8.3728 -40.7918 0.0000 0.0000 0.0000 -0.0000 -0.0000 0.0000 -0.0000 -0.0000 0.0000 -5.4499 0.1348 12.7941 0.9800 -0.3825 7.2179 4.1420 -0.3672 0.4749 -5.9536 -7.1593 -8.0967 4.5152 -9.2620 5.7201 1.9862 -4.5408 3.8910 0.0000 0.0000 0.0000 -3.5275 -61.6907 14.0452 30.6241 -41.4223 -11.8204 -0.0000 -0.0000 19.5809 44.2959 -20.7089 -19.0362 -7.1250 0.0000 -0.0000 9.6679 2.4791 -9.3768 0.0000 0.0000 0.0000 9.5579 61.1369 18.5240 -36.2357 45.6746 -15.6909 0.0000 0.0000 5.4572 -25.8097 -28.7553 13.0973 7.1250 -0.0000 -0.0000 5.8642 -61.2494 -2.3251
10.0188 12.6475 -8.3620 1.0931 2.5420 1.1217 0.0000 0.0000 0.0000 -9.6678 -15.9455 -42.9131 0.0000 0.0000 0.0000 0.0000 0.0000 0.0000 0.0000 0.0000 0.0000 0.0000 0.0000 0.0000 10.1662 8.3007 -40.9474 0.0000 0.0000 0.0000 -0.0000 -0.0000 0.0000 -0.0000 -0.0000 0.0000 -5.3861 0.1240 12.8261 1.0439 -0.3900 7.2541 4.1740 -0.3717 0.4965 -5.9183 -7.0519 -8.4163 4.4995 -9.1251 6.5859 1.7618 -4.4535 3.8093 -0.0000 -0.0000 0.0000 -3.4188 -61.6355 13.8265 30.6055 -41.4068 -11.8081 -0.0000 -0.0000 19.5993 44.1959 -20.5983 -18.8845 -7.1250 0.0000 -0.0000 9.6338 2.6524 -9.3120 -0.0000 -0.0000 0.0000 9.3218 61.0435 18.3884 -36.0917 45.5761 -15.5880 0.0000 0.0000 5.3903 -26.0611 -28.9513 13.3187 7.1250 -0.0000 -0.0000 5.6711 -61.5168 -2.2842
10.0131 12.6451 -8.3681 1.1562 2.6276 1.1093 0.0000 0.0000 0.0000 -9.6981 -15.8681 -42.9876 0.0000 0.0000 0.0000 0.0000 0.0000 0.0000 0.0000 0.0000 0.0000 0.0000 0.0000 0.0000 10.1145 8.1600 -41.0357 0.0000 0.0000 0.0000 -0.0000 -0.0000 0.0000 -0.0000 -0.0000 0.0000 -5.5902 0.1856 12.2815 1.1957 -0.2868 7.7092 4.4301 -0.3633 1.2660 -5.9435 -6.9737 -8.8596 4.3469 -8.9867 6.8708 1.7094 -4.3858 3.9552 -0.0000 -0.0000 0.0000 -2.5964 -61.9098 12.5736 30.4595 -41.2840 -11.7116 -0.0000 -0.0000 19.6814 44.4124 -20.6663 -19.0733 -7.1250 0.0000 -0.0000 9.7465 2.4907 -9.4533 -0.0000 -0.0000 0.0000 7.8207 60.8771 16.9517 -35.9026 45.4460 -15.4530 0.0000 0.0000 5.4583 -26.0726 -29.1359 13.3999 7.1250 -0.0000 -0.0000 5.7545 -61.7113 -2.3444
10.0112 12.6443 -8.3698 1.2637 2.7101 1.1345 0.0000 0.0000 0.0000 -9.7949 -15.8962 -43.0375 0.0000 0.0000 0.0000 0.0000 0.0000 0.0000 0.0000 0.0000 0.0000 0.0000 0.0000 0.0000 9.9863 7.9551 -41.1172 0.0000 0.0000 0.0000 -0.0000 -0.0000 0.0000 -0.0000 -0.0000 0.0000 -5.4748 0.1485 12.8004 1.0353 -0.3621 7.3758 4.2110 -0.3668 0.6378 -5.8558 -6.7434 -9.0809 4.3748 -8.7102 7.8736 1.7007 -4.2386 4.2819 -0.0000 -0.0000 0.0000 -3.4638 -61.7275 13.6316 30.4268 -41.2564 -11.6901 -0.0000 -0.0000 19.6327 44.8207 -20.9733 -19.5805 -7.1250 0.0000 -0.0000 9.9167 1.9598 -9.7200 -0.0000 -0.0000 0.0000 8.7114 60.7989 17.8308 -35.7496 45.3400 -15.3441 0.0000 0.0000 5.3785 -25.7704 -29.2646 13.2791 7.1250 -0.0000 -0.0000 6.1797 -61.7671 -2.5265
10.0116 12.6438 -8.3687 1.3783 2.7702 1.1711 0.0000 0.0000 0.0000 -9.9145 -15.9591 -43.0748 0.0000 0.0000 0.0000 0.0000 0.0000 0.0000 0.0000 0.0000 0.0000 0.0000 0.0000 0.0000 9.8296 7.7335 -41.1864 0.0000 0.0000 0.0000 -0.0000 -0.0000 0.0000 -0.0000 -0.0000 0.0000 -5.5913 0.2003 12.0152 1.0793 -0.2478 7.8722 4.3010 -0.3537 1.5766 -5.7167 -6.6721 -9.7351 4.2884 -8.6036 8.3456 1.6323 -4.1752 4.5191 0.0000 0.0000 0.0000 -2.4147 -62.1273 12.2322 30.1795 -41.0468 -11.5273 -0.0000 -0.0000 19.6095 44.8812 -21.0298 -19.6653 -7.1250 0.0000 -0.0000 9.9391 1.8670 -9.7594 0.0000 0.0000 0.0000 7.2015 60.6180 16.3575 -35.5706 45.2153 -15.2170 0.0000 0.0000 5.2058 -25.5593 -29.2621 13.1577 7.1250 -0.0000 -0.0000 6.4267 -61.7105 -2.6193
10.0096 12.6407 -8.3647 1.4139 2.7819 1.1158 0.0000 0.0000 0.0000 -9.9622 -15.9301 -43.0040 0.0000 0.0000 0.0000 0.0000 0.0000 0.0000 0.0000 0.0000 0.0000 0.0000 0.0000 0.0000 9.7983 7.5906 -41.1468 0.0000 0.0000 0.0000 -0.0000 -0.0000 0.0000 -0.0000 -0.0000 0.0000 -5.4192 0.1378 13.0673 0.8907 -0.3919 7.1575 4.0350 -0.3611 0.2638 -5.4635 -6.3907 -9.8466 4.0847 -8.2793 9.8240 1.5314 -4.0109 4.9587 0.0000 0.0000 0.0000 -4.0990 -61.7574 14.5354 30.1338 -41.0078 -11.4973 -0.0000 -0.0000 19.3854 44.4928 -20.6743 -19.1296 -7.1250 0.0000 -0.0000 9.7923 2.4520 -9.5060 0.0000 0.0000 0.0000 9.4030 60.5685 18.6814 -35.4488 45.1300 -15.1305 0.0000 0.0000 5.2199 -25.5977 -29.1530 13.1364 7.1250 -0.0000 -0.0000 6.3223 -61.6076 -2.5612
